<?xml version="1.0" encoding="UTF-8"?>
<svg version="1.1" xmlns="http://www.w3.org/2000/svg" width="512" height="512">
<path d="M0 0 C0 89.76 0 179.52 0 272 C10.56 272 21.12 272 32 272 C28.1245281 276.52138388 24.30253352 280.84353702 20.10229492 285.02709961 C19.54707153 285.58407532 18.99184814 286.14105103 18.4197998 286.71490479 C16.60917299 288.52988448 14.79497142 290.34123953 12.98046875 292.15234375 C11.71333965 293.4201472 10.44635897 294.688099 9.17951965 295.95619202 C6.53772301 298.59945622 3.89414263 301.2409197 1.24926758 303.88110352 C-2.1483265 307.27296568 -5.54136435 310.66934484 -8.93311024 314.06705379 C-11.54171294 316.67925773 -14.15267732 319.28909054 -16.7643795 321.89819527 C-18.01749859 323.15064568 -19.26987088 324.40384374 -20.52149391 325.65778923 C-22.26168515 327.40050356 -24.00502063 329.14000838 -25.74926758 330.87866211 C-26.5292234 331.66165428 -26.5292234 331.66165428 -27.32493591 332.46046448 C-30.88573036 336 -30.88573036 336 -32 336 C-32.71204155 297.67390615 -33.25703523 259.34882063 -33.58302521 221.01743278 C-33.62178972 216.47588516 -33.66191443 211.93435052 -33.70288086 207.39282227 C-33.71101248 206.48881638 -33.71914411 205.5848105 -33.72752214 204.6534105 C-33.86183821 190.08059393 -34.10591305 175.51163007 -34.39173668 160.94108724 C-34.68329141 145.95156438 -34.85416025 130.96403573 -34.91674334 115.97179466 C-34.95520095 107.56501531 -35.04715276 99.16628235 -35.27763176 90.76238823 C-36.80506547 33.48163713 -36.80506547 33.48163713 -22.86639243 17.42217332 C-6.28325823 0 -6.28325823 0 0 0 Z " fill="#844094" transform="translate(304,144)"/>
<path d="M0 0 C0.71204155 38.32609385 1.25703523 76.65117937 1.58302521 114.98256722 C1.62178972 119.52411484 1.66191443 124.06564948 1.70288086 128.60717773 C1.71101248 129.51118362 1.71914411 130.4151895 1.72752214 131.3465895 C1.86183821 145.91940607 2.10591305 160.48836993 2.39173668 175.05891276 C2.68329141 190.04843562 2.85416025 205.03596427 2.91674334 220.02820534 C2.95520095 228.43498469 3.04715276 236.83371765 3.27763176 245.23761177 C4.80506547 302.51836287 4.80506547 302.51836287 -9.13360757 318.57782668 C-15.61894282 325.39129351 -22.93041164 331.17992273 -31 336 C-31.33 336 -31.66 336 -32 336 C-32 246.24 -32 156.48 -32 64 C-42.56 64 -53.12 64 -64 64 C-60.1245281 59.47861612 -56.30253352 55.15646298 -52.10229492 50.97290039 C-51.26945984 50.13743683 -51.26945984 50.13743683 -50.4197998 49.28509521 C-48.60917299 47.47011552 -46.79497142 45.65876047 -44.98046875 43.84765625 C-43.71333965 42.5798528 -42.44635897 41.311901 -41.17951965 40.04380798 C-38.53772301 37.40054378 -35.89414263 34.7590803 -33.24926758 32.11889648 C-29.8516735 28.72703432 -26.45863565 25.33065516 -23.06688976 21.93294621 C-20.45828706 19.32074227 -17.84732268 16.71090946 -15.2356205 14.10180473 C-13.98250141 12.84935432 -12.73012912 11.59615626 -11.47850609 10.34221077 C-9.73831485 8.59949644 -7.99497937 6.85999162 -6.25073242 5.12133789 C-5.4707766 4.33834572 -5.4707766 4.33834572 -4.67506409 3.53953552 C-1.11426964 0 -1.11426964 0 0 0 Z " fill="#844094" transform="translate(240,32)"/>
</svg>
