<svg width="200" height="200" viewBox="0 0 200 200" fill="none" xmlns="http://www.w3.org/2000/svg">
<g clip-path="url(#clip0_10_2)">
<path fill-rule="evenodd" clip-rule="evenodd" d="M85.646 101.725C102.745 88.9286 98.8757 73.877 85.493 55.9073C72.1103 37.9376 42.9986 32.2986 37.1831 36.6508C31.3676 41.003 28.0175 70.9356 41.4002 88.9053C54.7829 106.875 68.5475 114.521 85.646 101.725Z" fill="url(#paint0_linear_10_2)"/>
<path fill-rule="evenodd" clip-rule="evenodd" d="M99.4883 104.788C110.098 119.171 126.052 113.292 146.368 97.9414C166.684 82.591 176.668 54.0909 173.059 49.1988C169.451 44.3067 139.324 45.4995 119.008 60.8499C98.6918 76.2003 88.8785 90.404 99.4883 104.788Z" fill="url(#paint1_linear_10_2)"/>
<path fill-rule="evenodd" clip-rule="evenodd" d="M92.4403 96.619C110.212 97.9588 118.185 82.9532 122.979 58.979C127.773 35.0047 115.844 10.2562 109.8 9.80054C103.756 9.34485 81.9442 31.5497 77.1504 55.524C72.3567 79.4982 74.6686 95.2792 92.4403 96.619Z" fill="url(#paint2_linear_10_2)"/>
<path fill-rule="evenodd" clip-rule="evenodd" d="M89.7671 200C130.622 200 163.755 190.396 163.755 146.839C163.755 103.282 130.622 67.5391 89.7671 67.5391C48.9121 67.5391 15.8057 103.282 15.8057 146.839C15.8057 190.396 48.9121 200 89.7671 200Z" fill="url(#paint3_linear_10_2)"/>
<path d="M127.136 137.946C132.972 137.946 137.703 136.165 137.703 133.969C137.703 131.772 132.972 129.991 127.136 129.991C121.299 129.991 116.568 131.772 116.568 133.969C116.568 136.165 121.299 137.946 127.136 137.946Z" fill="#EAADCC"/>
<path d="M48.8759 135.53C54.6689 136.106 59.6331 134.805 59.964 132.624C60.2948 130.443 55.8669 128.209 50.074 127.634C44.281 127.058 39.3168 128.359 38.9859 130.539C38.6551 132.72 43.083 134.954 48.8759 135.53Z" fill="#EAADCC"/>
<path d="M96.4894 132.646C93.3659 134.779 89.7252 135.625 85.5672 135.187C81.4092 134.748 78.3037 133.271 76.2506 130.756" stroke="black" stroke-width="6" stroke-linecap="round" stroke-linejoin="round"/>
<path fill-rule="evenodd" clip-rule="evenodd" d="M55.4372 111.762C58.3061 111.707 60.9639 112.623 62.942 114.151C64.92 115.678 66.2183 117.817 66.3678 120.204C66.5174 122.591 65.4901 124.774 63.7081 126.375C61.9262 127.976 59.3895 128.993 56.5205 129.049C53.6518 129.105 50.9942 128.188 49.0163 126.661C47.0386 125.133 45.7405 122.995 45.5909 120.608C45.4413 118.221 46.4686 116.037 48.2503 114.437C50.0321 112.836 52.5685 111.818 55.4372 111.762Z" fill="black"/>
<path fill-rule="evenodd" clip-rule="evenodd" d="M56.109 119.039C56.0116 117.485 54.4177 116.254 52.5506 116.291C50.6824 116.327 49.247 117.617 49.3444 119.171C49.4418 120.725 51.0351 121.955 52.9033 121.919C54.7704 121.882 56.2064 120.593 56.109 119.039Z" fill="white"/>
<path fill-rule="evenodd" clip-rule="evenodd" d="M119.468 113.933C122.337 113.877 124.995 114.794 126.973 116.322C128.951 117.849 130.249 119.987 130.399 122.374C130.548 124.761 129.521 126.945 127.739 128.545C125.957 130.146 123.421 131.164 120.552 131.22C117.683 131.276 115.025 130.359 113.047 128.831C111.069 127.304 109.771 125.165 109.622 122.778C109.472 120.392 110.499 118.208 112.281 116.608C114.063 115.007 116.6 113.989 119.468 113.933Z" fill="black"/>
<path d="M64.7295 120.284C65.0914 124.421 61.4672 127.828 56.6343 127.895C51.802 127.963 47.5917 124.664 47.2298 120.528C46.868 116.391 50.4917 112.984 55.324 112.917C60.1569 112.849 64.3677 116.148 64.7295 120.284ZM67.5673 120.244C67.0881 114.766 61.5116 110.398 55.1115 110.488C48.7119 110.577 43.9128 115.089 44.392 120.567C44.8712 126.045 50.4471 130.414 56.8468 130.324C63.247 130.235 68.0465 125.722 67.5673 120.244Z" fill="white" stroke="white" stroke-width="3"/>
<path d="M128.76 122.455C129.122 126.592 125.498 129.999 120.666 130.066C115.833 130.134 111.622 126.835 111.261 122.699C110.899 118.562 114.523 115.155 119.355 115.088C124.188 115.02 128.398 118.318 128.76 122.455ZM131.598 122.415C131.119 116.937 125.543 112.569 119.143 112.659C112.743 112.748 107.944 117.26 108.423 122.738C108.902 128.216 114.478 132.584 120.878 132.495C127.278 132.406 132.077 127.893 131.598 122.415Z" fill="white" stroke="white" stroke-width="3"/>
<path fill-rule="evenodd" clip-rule="evenodd" d="M120.068 121.23C119.931 119.665 118.337 118.416 116.509 118.442C114.681 118.467 113.309 119.757 113.446 121.322C113.583 122.887 115.177 124.135 117.005 124.11C118.833 124.084 120.205 122.794 120.068 121.23Z" fill="white"/>
<path d="M33.7461 150.874L70.1189 181.503" stroke="#ECB732" stroke-width="11" stroke-linecap="round"/>
<path d="M65.2037 154.454L42.1021 174.343" stroke="#ECB732" stroke-width="11" stroke-linecap="round"/>
<path d="M145.322 150.874L108.949 181.503" stroke="#ECB732" stroke-width="11" stroke-linecap="round"/>
<path d="M113.865 154.454L136.966 174.343" stroke="#ECB732" stroke-width="11" stroke-linecap="round"/>
<path d="M104.526 83.2512L80.4412 102.742" stroke="#FFC73B" stroke-width="11" stroke-linecap="round"/>
<path d="M99.6104 102.743L75.5256 83.2517" stroke="#FFC73B" stroke-width="11" stroke-linecap="round"/>
</g>
<defs>
<linearGradient id="paint0_linear_10_2" x1="8496.64" y1="-5248.2" x2="13147.6" y2="9804.59" gradientUnits="userSpaceOnUse">
<stop stop-color="#52CE63"/>
<stop offset="1" stop-color="#51A256"/>
</linearGradient>
<linearGradient id="paint1_linear_10_2" x1="5881.51" y1="6181.9" x2="-12314.4" y2="13090.1" gradientUnits="userSpaceOnUse">
<stop stop-color="#52CE63"/>
<stop offset="1" stop-color="#51A256"/>
</linearGradient>
<linearGradient id="paint2_linear_10_2" x1="7396.33" y1="559.124" x2="5543.07" y2="25141.7" gradientUnits="userSpaceOnUse">
<stop stop-color="#8AE99C"/>
<stop offset="1" stop-color="#52CE63"/>
</linearGradient>
<linearGradient id="paint3_linear_10_2" x1="24263.8" y1="11107.4" x2="21692.4" y2="63282.7" gradientUnits="userSpaceOnUse">
<stop stop-color="#FFE56C"/>
<stop offset="1" stop-color="#FFC63A"/>
</linearGradient>
<clipPath id="clip0_10_2">
<rect width="200" height="200" fill="white"/>
</clipPath>
</defs>
</svg>
