<svg width="38" height="48" viewBox="0 0 38 48" fill="none" xmlns="http://www.w3.org/2000/svg">
<path d="M1.46833 43.6259L0.00170461 4.54714C-0.0467321 3.25651 0.942869 2.16274 2.23188 2.08217L35.4711 0.00471629C36.7833 -0.0772875 37.9134 0.919872 37.9953 2.23193C37.9983 2.28137 38 2.33089 38 2.38041V44.9638C38 46.2783 36.9343 47.3441 35.6195 47.3441C35.584 47.3441 35.5485 47.3434 35.5128 47.3417L3.74018 45.9147C2.50277 45.8591 1.51478 44.8637 1.46833 43.6259Z" fill="#FF4785"/>
<path fill-rule="evenodd" clip-rule="evenodd" d="M32.8579 0.168213L28.2832 0.454124L28.06 5.8195C28.0567 5.90197 28.082 5.98307 28.132 6.04885C28.2506 6.20509 28.4733 6.23567 28.6296 6.11715L30.7136 4.53619L32.4739 5.9229C32.5399 5.97486 32.6221 6.00175 32.7061 5.99884C32.9021 5.99199 33.0555 5.82757 33.0487 5.63156L32.8579 0.168213ZM29.2973 18.1352C28.4598 18.7857 22.2218 19.2295 22.2218 18.3034C22.3537 14.7697 20.7716 14.6147 19.8927 14.6147C19.0577 14.6147 17.6514 14.8672 17.6514 16.7602C17.6514 18.6894 19.7065 19.7785 22.1187 21.0568C25.5456 22.8727 29.6927 25.0706 29.6927 30.6009C29.6927 35.9015 25.386 38.8295 19.8927 38.8295C14.2235 38.8295 9.26936 36.5359 9.82888 28.584C10.0486 27.6504 17.2559 27.8722 17.2559 28.584C17.168 31.8654 17.9151 32.8305 19.8048 32.8305C21.255 32.8305 21.9142 32.0311 21.9142 30.6849C21.9142 28.6477 19.7729 27.4454 17.3096 26.0625C13.9743 24.1898 10.0486 21.9858 10.0486 16.9285C10.0486 11.8803 13.5204 8.51477 19.7169 8.51477C25.9134 8.51477 29.2973 11.8287 29.2973 18.1352Z" fill="white"/>
</svg>
